<svg width="282" height="541" viewBox="0 0 282 541" fill="none" xmlns="http://www.w3.org/2000/svg">
<path d="M276 433C244.193 352.724 20.5003 367 2.49996 444.5C-19 558.5 133.5 539.5 167 539.5C197 539.5 305.717 508 276 433Z" fill="#FF71A3"/>
<path d="M134.988 69.9683L115.352 77.3283V45.1383H133.17L134.988 69.9683Z" fill="#9F616A"/>
<path d="M117.785 54.0484C128.59 54.0484 137.35 44.0733 137.35 31.7684C137.35 19.4635 128.59 9.4884 117.785 9.4884C106.979 9.4884 98.2193 19.4635 98.2193 31.7684C98.2193 44.0733 106.979 54.0484 117.785 54.0484Z" fill="#9F616A"/>
<path d="M123.159 29.5584C119.883 29.4484 117.732 25.6784 116.459 22.2384C115.185 18.7984 113.877 14.8484 110.838 13.4284C108.353 12.2684 103.971 20.1184 102.013 18.0284C99.9668 15.8484 101.96 4.65837 104.129 2.64837C106.298 0.638366 109.267 0.248363 112.059 0.0983628C118.874 -0.261637 125.732 0.368363 132.415 1.95836C136.551 2.93836 140.801 4.41836 143.787 7.81836C147.563 12.1384 148.529 18.6484 148.801 24.7384C149.082 30.9684 148.766 37.4884 146.105 42.9384C143.445 48.3884 137.877 52.4084 132.538 51.0184C132.002 47.7184 132.547 44.3284 132.757 40.9684C132.959 37.6184 132.749 33.9984 130.948 31.3284C129.157 28.6584 125.311 27.5984 123.221 29.9684" fill="#2F2E43"/>
<path d="M147.229 37.2784C149.188 35.6484 151.532 34.2784 153.939 34.6184C156.538 34.9784 158.742 37.4184 159.41 40.3084C160.077 43.1984 159.331 46.3784 157.715 48.7384C156.108 51.0984 153.71 52.6584 151.181 53.4384C149.715 53.8884 148.108 54.0784 146.711 53.3984C144.656 52.3884 143.541 49.3984 144.349 47.0184" fill="#2F2E43"/>
<path d="M72.3574 246.908C71.049 254.228 73.4463 260.918 77.6966 261.848C81.9469 262.778 86.4519 257.588 87.7516 250.268C88.3048 247.348 88.217 244.328 87.4969 241.448L103.681 126.698L83.4398 122.358L75.6242 238.858C73.9645 241.218 72.8492 243.978 72.3574 246.918V246.908Z" fill="#9F616A"/>
<path d="M115.141 62.5583H101.328C91.5628 64.2483 88.9107 70.1783 86.689 81.1383C83.2993 97.8583 78.9699 120.118 79.8305 120.448C81.2092 120.968 104.726 133.568 116.713 130.688L115.141 62.5583Z" fill="#E2E3E4"/>
<path d="M128.498 428.068H110.11V457.778H128.498V428.068Z" fill="#9F616A"/>
<path d="M92.2038 475.758C90.2719 475.758 88.5507 475.708 87.251 475.568C82.3684 475.058 77.7054 470.948 75.3607 468.548C74.3069 467.468 73.9732 465.748 74.5177 464.268C74.9128 463.208 75.6944 462.408 76.6692 462.098L89.5781 457.898L110.478 441.838L110.716 442.318C110.803 442.498 112.858 446.708 113.543 449.548C113.807 450.628 113.736 451.528 113.341 452.228C113.069 452.708 112.683 452.988 112.375 453.148C112.753 453.598 113.938 454.518 117.591 455.178C122.922 456.138 124.046 449.848 124.09 449.588L124.125 449.378L124.283 449.258C126.821 447.398 128.384 446.548 128.92 446.728C129.254 446.838 129.816 447.038 131.335 464.168C131.484 464.708 132.547 468.648 131.827 472.418C131.045 476.518 115.308 475.108 112.156 474.788C112.068 474.798 100.283 475.758 92.2126 475.758H92.2038Z" fill="#2F2E43"/>
<path d="M180.86 404.726L165.257 415.807L179.063 441.016L194.666 429.935L180.86 404.726Z" fill="#9F616A"/>
<path d="M160.138 471.688C157.978 471.688 155.994 471.389 154.58 471.109C153.192 470.829 152.103 469.569 151.875 467.989C151.717 466.849 152.007 465.698 152.692 464.848L161.693 453.508L171.967 427.288L172.389 427.548C172.547 427.648 176.244 429.978 178.15 431.978C178.878 432.738 179.238 433.548 179.221 434.378C179.212 434.958 179.019 435.418 178.826 435.748C179.353 435.908 180.784 435.968 184.191 434.328C189.162 431.938 187.195 425.918 187.107 425.668L187.037 425.468L187.116 425.278C188.406 422.168 189.329 420.508 189.873 420.338C190.215 420.228 190.778 420.058 200.025 433.688C200.402 434.048 203.133 436.758 204.275 440.388C205.513 444.338 191.506 452.628 188.688 454.248C188.6 454.328 173.943 466.458 167.919 469.908C165.53 471.278 162.703 471.698 160.13 471.698L160.138 471.688Z" fill="#2F2E43"/>
<path d="M141.899 182.708H90.4124L85.7406 237.248L106.184 438.768H132.468L121.956 322.378L164.591 427.458L187.95 408.838L154.659 310.738C154.659 310.738 166.549 225.278 157.205 203.988C147.862 182.708 141.899 182.708 141.899 182.708Z" fill="#2F2E43"/>
<path d="M167.656 182.938H85.8811L110.417 62.5583H146.044L167.656 182.938Z" fill="#E2E3E4"/>
<path d="M175.015 246.908C176.323 254.228 173.926 260.918 169.675 261.848C165.425 262.778 160.92 257.588 159.62 250.268C159.067 247.348 159.155 244.328 159.875 241.448L143.69 126.698L163.932 122.358L171.748 238.858C173.407 241.218 174.523 243.978 175.015 246.918V246.908Z" fill="#9F616A"/>
<path d="M132.23 62.5583H146.044C155.809 64.2483 158.461 70.1783 160.683 81.1383C164.073 97.8583 168.402 120.118 167.541 120.448C166.163 120.968 142.645 133.568 130.659 130.688L132.23 62.5583Z" fill="#E2E3E4"/>
</svg>
